<?xml version="1.0" standalone="no"?><!DOCTYPE svg PUBLIC "-//W3C//DTD SVG 1.1//EN" "http://www.w3.org/Graphics/SVG/1.1/DTD/svg11.dtd"><svg t="1505740916133" class="icon" style="" viewBox="0 0 1024 1024" version="1.1" xmlns="http://www.w3.org/2000/svg" p-id="941" xmlns:xlink="http://www.w3.org/1999/xlink" width="32" height="32"><defs><style type="text/css"></style></defs><path d="M978.823 195.705 748.017 195.705l-75.49-120.365L341.76 75.34l-75.505 120.365L45.176 195.705C20.224 195.705 0 215.929 0 240.881l0 662.588c0 24.938 20.224 45.177 45.176 45.177l933.647 0c24.968 0 45.176-20.239 45.176-45.177L1023.999 240.881C1024 215.929 1003.791 195.705 978.823 195.705zM512 764.657c-124.748 0-225.883-101.136-225.883-225.883S387.252 312.892 512 312.892c124.747 0 225.882 101.135 225.882 225.882S636.747 764.657 512 764.657z" fill="#999999" p-id="942"></path><path d="M346.353 538.774c0 91.484 74.163 165.647 165.647 165.647s165.646-74.163 165.646-165.647S603.485 373.127 512 373.127 346.353 447.29 346.353 538.774L346.353 538.774z" fill="#999999" p-id="943"></path></svg>